<svg width="15" height="17" viewBox="0 0 15 17" fill="none" xmlns="http://www.w3.org/2000/svg">
<path d="M0.861 11.023V9.007H2.289C2.275 8.867 2.268 8.643 2.268 8.335C2.268 8.027 2.275 7.803 2.289 7.663H0.861V5.647H2.625C3.073 4.009 3.927 2.735 5.187 1.825C6.447 0.915 8.029 0.46 9.933 0.46C11.739 0.46 13.314 0.936 14.658 1.888L13.692 4.492C12.558 3.722 11.417 3.337 10.269 3.337C8.365 3.337 7.042 4.107 6.3 5.647H12.873V7.663H5.775C5.761 7.803 5.754 8.027 5.754 8.335C5.754 8.503 5.768 8.727 5.796 9.007H12.873V11.023H6.342C6.72 11.765 7.245 12.339 7.917 12.745C8.603 13.137 9.387 13.333 10.269 13.333C11.417 13.333 12.558 12.948 13.692 12.178L14.658 14.782C13.314 15.734 11.739 16.21 9.933 16.21C8.099 16.21 6.538 15.755 5.25 14.845C3.962 13.921 3.087 12.647 2.625 11.023H0.861Z" fill="#636363"/>
</svg>
