<svg width="106" height="30" viewBox="0 0 106 30" fill="none" xmlns="http://www.w3.org/2000/svg">
<path d="M7.161 7.083H7.139L5.731 10.163H4.037L2.629 7.083H2.607V12H0.836V3.97H2.75L4.873 8.7H4.895L7.018 3.97H8.976V12H7.161V7.083ZM15.5936 12L18.3106 3.97H20.2906L22.9966 12H21.0166L20.5436 10.262H18.0026L17.5406 12H15.5936ZM18.3876 8.843H20.1696L19.2896 5.587H19.2676L18.3876 8.843ZM33.1863 5.367C32.4163 5.367 31.8076 5.598 31.3603 6.06C30.9203 6.522 30.7003 7.16367 30.7003 7.985C30.7003 8.79167 30.9313 9.42967 31.3933 9.899C31.8553 10.3683 32.453 10.603 33.1863 10.603C33.8243 10.603 34.455 10.4013 35.0783 9.998L35.6063 11.362C34.873 11.8607 34.004 12.11 32.9993 12.11C31.7233 12.11 30.7003 11.7397 29.9303 10.999C29.1676 10.2583 28.7863 9.25367 28.7863 7.985C28.7863 6.70167 29.1566 5.69333 29.8973 4.96C30.6453 4.22667 31.6793 3.86 32.9993 3.86C34.004 3.86 34.873 4.10933 35.6063 4.608L35.0783 5.972C34.455 5.56867 33.8243 5.367 33.1863 5.367ZM41.8475 12L44.5645 3.97H46.5445L49.2505 12H47.2705L46.7975 10.262H44.2565L43.7945 12H41.8475ZM44.6415 8.843H46.4235L45.5435 5.587H45.5215L44.6415 8.843ZM57.7052 9.03V12H55.8682V4.025C56.6749 3.915 57.5549 3.86 58.5082 3.86C59.6082 3.86 60.4259 4.069 60.9612 4.487C61.5039 4.89767 61.7752 5.48433 61.7752 6.247C61.7752 6.73833 61.6322 7.182 61.3462 7.578C61.0602 7.96667 60.6826 8.24533 60.2132 8.414V8.436C60.5946 8.64867 60.9062 9.085 61.1482 9.745L61.9952 12H60.0702L59.3112 9.822C59.2086 9.514 59.0839 9.305 58.9372 9.195C58.7906 9.085 58.5632 9.03 58.2552 9.03H57.7052ZM57.7052 7.655H58.3212C58.8346 7.655 59.2269 7.54867 59.4982 7.336C59.7696 7.116 59.9052 6.81167 59.9052 6.423C59.9052 5.66033 59.4029 5.279 58.3982 5.279C58.1342 5.279 57.9032 5.301 57.7052 5.345V7.655ZM70.5636 9.03V12H68.7266V4.025C69.5333 3.915 70.4133 3.86 71.3666 3.86C72.4666 3.86 73.2843 4.069 73.8196 4.487C74.3623 4.89767 74.6336 5.48433 74.6336 6.247C74.6336 6.73833 74.4906 7.182 74.2046 7.578C73.9186 7.96667 73.541 8.24533 73.0716 8.414V8.436C73.453 8.64867 73.7646 9.085 74.0066 9.745L74.8536 12H72.9286L72.1696 9.822C72.067 9.514 71.9423 9.305 71.7956 9.195C71.649 9.085 71.4216 9.03 71.1136 9.03H70.5636ZM70.5636 7.655H71.1796C71.693 7.655 72.0853 7.54867 72.3566 7.336C72.628 7.116 72.7636 6.81167 72.7636 6.423C72.7636 5.66033 72.2613 5.279 71.2566 5.279C70.9926 5.279 70.7616 5.301 70.5636 5.345V7.655ZM82.0826 4.971C82.8233 4.23033 83.8133 3.86 85.0526 3.86C86.2919 3.86 87.2783 4.23033 88.0116 4.971C88.7523 5.71167 89.1226 6.71633 89.1226 7.985C89.1226 9.25367 88.7523 10.2583 88.0116 10.999C87.2783 11.7397 86.2919 12.11 85.0526 12.11C83.8133 12.11 82.8233 11.7397 82.0826 10.999C81.3493 10.2583 80.9826 9.25367 80.9826 7.985C80.9826 6.71633 81.3493 5.71167 82.0826 4.971ZM83.4576 9.91C83.8389 10.35 84.3706 10.57 85.0526 10.57C85.7346 10.57 86.2626 10.35 86.6366 9.91C87.0179 9.47 87.2086 8.82833 87.2086 7.985C87.2086 7.14167 87.0179 6.5 86.6366 6.06C86.2626 5.62 85.7346 5.4 85.0526 5.4C84.3706 5.4 83.8389 5.62 83.4576 6.06C83.0836 6.5 82.8966 7.14167 82.8966 7.985C82.8966 8.82833 83.0836 9.47 83.4576 9.91ZM100.136 5.873H100.114L99.1021 12H96.9241L95.1421 3.97H97.0341L98.0461 10.097H98.0681L99.0141 3.97H101.291L102.226 10.097H102.248L103.271 3.97H105.119L103.337 12H101.159L100.136 5.873Z" fill="black"/>
<path d="M5.863 19.84C5.16633 19.4953 4.433 19.323 3.663 19.323C3.28167 19.323 2.992 19.3963 2.794 19.543C2.596 19.6897 2.497 19.8877 2.497 20.137C2.497 20.5477 2.805 20.841 3.421 21.017C4.51367 21.3177 5.28 21.677 5.72 22.095C6.16733 22.513 6.391 23.052 6.391 23.712C6.391 24.4893 6.127 25.0833 5.599 25.494C5.071 25.9047 4.29 26.11 3.256 26.11C2.794 26.11 2.31367 26.0403 1.815 25.901C1.31633 25.7543 0.898333 25.5673 0.561 25.34L1.001 23.877C1.749 24.3903 2.52633 24.647 3.333 24.647C3.71433 24.647 4.00033 24.57 4.191 24.416C4.389 24.2547 4.488 24.031 4.488 23.745C4.488 23.5103 4.40733 23.3197 4.246 23.173C4.092 23.0263 3.817 22.8943 3.421 22.777C2.41633 22.4837 1.694 22.128 1.254 21.71C0.814 21.2847 0.594 20.7603 0.594 20.137C0.594 19.4403 0.854333 18.8867 1.375 18.476C1.903 18.0653 2.64 17.86 3.586 17.86C4.59067 17.86 5.46333 18.036 6.204 18.388L5.863 19.84ZM19.1764 17.97V19.521H16.9434V26H15.0294V19.521H12.7964V17.97H19.1764ZM27.8514 17.97V22.843C27.8514 24.0163 28.2987 24.603 29.1934 24.603C30.0807 24.603 30.5244 24.0163 30.5244 22.843V17.97H32.3724V22.722C32.3724 23.8367 32.0974 24.68 31.5474 25.252C30.9974 25.824 30.2054 26.11 29.1714 26.11C28.1374 26.11 27.3417 25.824 26.7844 25.252C26.2344 24.68 25.9594 23.8367 25.9594 22.722V17.97H27.8514ZM45.9997 21.875C45.9997 23.2243 45.6257 24.2693 44.8777 25.01C44.137 25.7433 43.092 26.11 41.7427 26.11C40.9287 26.11 40.1587 26.055 39.4327 25.945V18.025C40.1587 17.915 40.9287 17.86 41.7427 17.86C43.092 17.86 44.137 18.2157 44.8777 18.927C45.6257 19.631 45.9997 20.6137 45.9997 21.875ZM44.2177 21.875C44.2177 20.1737 43.4403 19.323 41.8857 19.323C41.673 19.323 41.4677 19.345 41.2697 19.389V24.581C41.4677 24.625 41.673 24.647 41.8857 24.647C43.4403 24.647 44.2177 23.723 44.2177 21.875ZM52.8428 26V17.97H54.8998V26H52.8428ZM62.8433 18.971C63.584 18.2303 64.574 17.86 65.8133 17.86C67.0527 17.86 68.039 18.2303 68.7723 18.971C69.513 19.7117 69.8833 20.7163 69.8833 21.985C69.8833 23.2537 69.513 24.2583 68.7723 24.999C68.039 25.7397 67.0527 26.11 65.8133 26.11C64.574 26.11 63.584 25.7397 62.8433 24.999C62.11 24.2583 61.7433 23.2537 61.7433 21.985C61.7433 20.7163 62.11 19.7117 62.8433 18.971ZM64.2183 23.91C64.5997 24.35 65.1313 24.57 65.8133 24.57C66.4953 24.57 67.0233 24.35 67.3973 23.91C67.7787 23.47 67.9693 22.8283 67.9693 21.985C67.9693 21.1417 67.7787 20.5 67.3973 20.06C67.0233 19.62 66.4953 19.4 65.8133 19.4C65.1313 19.4 64.5997 19.62 64.2183 20.06C63.8443 20.5 63.6573 21.1417 63.6573 21.985C63.6573 22.8283 63.8443 23.47 64.2183 23.91Z" fill="black"/>
</svg>
