<svg width="146" height="31" viewBox="0 0 146 31" fill="none" xmlns="http://www.w3.org/2000/svg">
<path d="M47.161 8.083H47.139L45.731 11.163H44.037L42.629 8.083H42.607V13H40.836V4.97H42.75L44.873 9.7H44.895L47.018 4.97H48.976V13H47.161V8.083ZM55.5936 13L58.3106 4.97H60.2906L62.9966 13H61.0166L60.5436 11.262H58.0026L57.5406 13H55.5936ZM58.3876 9.843H60.1696L59.2896 6.587H59.2676L58.3876 9.843ZM73.1863 6.367C72.4163 6.367 71.8076 6.598 71.3603 7.06C70.9203 7.522 70.7003 8.16367 70.7003 8.985C70.7003 9.79167 70.9313 10.4297 71.3933 10.899C71.8553 11.3683 72.453 11.603 73.1863 11.603C73.8243 11.603 74.455 11.4013 75.0783 10.998L75.6063 12.362C74.873 12.8607 74.004 13.11 72.9993 13.11C71.7233 13.11 70.7003 12.7397 69.9303 11.999C69.1676 11.2583 68.7863 10.2537 68.7863 8.985C68.7863 7.70167 69.1566 6.69333 69.8973 5.96C70.6453 5.22667 71.6793 4.86 72.9993 4.86C74.004 4.86 74.873 5.10933 75.6063 5.608L75.0783 6.972C74.455 6.56867 73.8243 6.367 73.1863 6.367ZM81.8475 13L84.5645 4.97H86.5445L89.2505 13H87.2705L86.7975 11.262H84.2565L83.7945 13H81.8475ZM84.6415 9.843H86.4235L85.5435 6.587H85.5215L84.6415 9.843ZM97.7052 10.03V13H95.8682V5.025C96.6749 4.915 97.5549 4.86 98.5082 4.86C99.6082 4.86 100.426 5.069 100.961 5.487C101.504 5.89767 101.775 6.48433 101.775 7.247C101.775 7.73833 101.632 8.182 101.346 8.578C101.06 8.96667 100.683 9.24533 100.213 9.414V9.436C100.595 9.64867 100.906 10.085 101.148 10.745L101.995 13H100.07L99.3112 10.822C99.2086 10.514 99.0839 10.305 98.9372 10.195C98.7906 10.085 98.5632 10.03 98.2552 10.03H97.7052ZM97.7052 8.655H98.3212C98.8346 8.655 99.2269 8.54867 99.4982 8.336C99.7696 8.116 99.9052 7.81167 99.9052 7.423C99.9052 6.66033 99.4029 6.279 98.3982 6.279C98.1342 6.279 97.9032 6.301 97.7052 6.345V8.655ZM110.564 10.03V13H108.727V5.025C109.533 4.915 110.413 4.86 111.367 4.86C112.467 4.86 113.284 5.069 113.82 5.487C114.362 5.89767 114.634 6.48433 114.634 7.247C114.634 7.73833 114.491 8.182 114.205 8.578C113.919 8.96667 113.541 9.24533 113.072 9.414V9.436C113.453 9.64867 113.765 10.085 114.007 10.745L114.854 13H112.929L112.17 10.822C112.067 10.514 111.942 10.305 111.796 10.195C111.649 10.085 111.422 10.03 111.114 10.03H110.564ZM110.564 8.655H111.18C111.693 8.655 112.085 8.54867 112.357 8.336C112.628 8.116 112.764 7.81167 112.764 7.423C112.764 6.66033 112.261 6.279 111.257 6.279C110.993 6.279 110.762 6.301 110.564 6.345V8.655ZM122.083 5.971C122.823 5.23033 123.813 4.86 125.053 4.86C126.292 4.86 127.278 5.23033 128.012 5.971C128.752 6.71167 129.123 7.71633 129.123 8.985C129.123 10.2537 128.752 11.2583 128.012 11.999C127.278 12.7397 126.292 13.11 125.053 13.11C123.813 13.11 122.823 12.7397 122.083 11.999C121.349 11.2583 120.983 10.2537 120.983 8.985C120.983 7.71633 121.349 6.71167 122.083 5.971ZM123.458 10.91C123.839 11.35 124.371 11.57 125.053 11.57C125.735 11.57 126.263 11.35 126.637 10.91C127.018 10.47 127.209 9.82833 127.209 8.985C127.209 8.14167 127.018 7.5 126.637 7.06C126.263 6.62 125.735 6.4 125.053 6.4C124.371 6.4 123.839 6.62 123.458 7.06C123.084 7.5 122.897 8.14167 122.897 8.985C122.897 9.82833 123.084 10.47 123.458 10.91ZM140.136 6.873H140.114L139.102 13H136.924L135.142 4.97H137.034L138.046 11.097H138.068L139.014 4.97H141.291L142.226 11.097H142.248L143.271 4.97H145.119L143.337 13H141.159L140.136 6.873Z" fill="black"/>
<path d="M45.863 20.84C45.1663 20.4953 44.433 20.323 43.663 20.323C43.2817 20.323 42.992 20.3963 42.794 20.543C42.596 20.6897 42.497 20.8877 42.497 21.137C42.497 21.5477 42.805 21.841 43.421 22.017C44.5137 22.3177 45.28 22.677 45.72 23.095C46.1673 23.513 46.391 24.052 46.391 24.712C46.391 25.4893 46.127 26.0833 45.599 26.494C45.071 26.9047 44.29 27.11 43.256 27.11C42.794 27.11 42.3137 27.0403 41.815 26.901C41.3163 26.7543 40.8983 26.5673 40.561 26.34L41.001 24.877C41.749 25.3903 42.5263 25.647 43.333 25.647C43.7143 25.647 44.0003 25.57 44.191 25.416C44.389 25.2547 44.488 25.031 44.488 24.745C44.488 24.5103 44.4073 24.3197 44.246 24.173C44.092 24.0263 43.817 23.8943 43.421 23.777C42.4163 23.4837 41.694 23.128 41.254 22.71C40.814 22.2847 40.594 21.7603 40.594 21.137C40.594 20.4403 40.8543 19.8867 41.375 19.476C41.903 19.0653 42.64 18.86 43.586 18.86C44.5907 18.86 45.4633 19.036 46.204 19.388L45.863 20.84ZM59.1764 18.97V20.521H56.9434V27H55.0294V20.521H52.7964V18.97H59.1764ZM67.8514 18.97V23.843C67.8514 25.0163 68.2987 25.603 69.1934 25.603C70.0807 25.603 70.5244 25.0163 70.5244 23.843V18.97H72.3724V23.722C72.3724 24.8367 72.0974 25.68 71.5474 26.252C70.9974 26.824 70.2054 27.11 69.1714 27.11C68.1374 27.11 67.3417 26.824 66.7844 26.252C66.2344 25.68 65.9594 24.8367 65.9594 23.722V18.97H67.8514ZM85.9997 22.875C85.9997 24.2243 85.6257 25.2693 84.8777 26.01C84.137 26.7433 83.092 27.11 81.7427 27.11C80.9287 27.11 80.1587 27.055 79.4327 26.945V19.025C80.1587 18.915 80.9287 18.86 81.7427 18.86C83.092 18.86 84.137 19.2157 84.8777 19.927C85.6257 20.631 85.9997 21.6137 85.9997 22.875ZM84.2177 22.875C84.2177 21.1737 83.4403 20.323 81.8857 20.323C81.673 20.323 81.4677 20.345 81.2697 20.389V25.581C81.4677 25.625 81.673 25.647 81.8857 25.647C83.4403 25.647 84.2177 24.723 84.2177 22.875ZM92.8428 27V18.97H94.8998V27H92.8428ZM102.843 19.971C103.584 19.2303 104.574 18.86 105.813 18.86C107.053 18.86 108.039 19.2303 108.772 19.971C109.513 20.7117 109.883 21.7163 109.883 22.985C109.883 24.2537 109.513 25.2583 108.772 25.999C108.039 26.7397 107.053 27.11 105.813 27.11C104.574 27.11 103.584 26.7397 102.843 25.999C102.11 25.2583 101.743 24.2537 101.743 22.985C101.743 21.7163 102.11 20.7117 102.843 19.971ZM104.218 24.91C104.6 25.35 105.131 25.57 105.813 25.57C106.495 25.57 107.023 25.35 107.397 24.91C107.779 24.47 107.969 23.8283 107.969 22.985C107.969 22.1417 107.779 21.5 107.397 21.06C107.023 20.62 106.495 20.4 105.813 20.4C105.131 20.4 104.6 20.62 104.218 21.06C103.844 21.5 103.657 22.1417 103.657 22.985C103.657 23.8283 103.844 24.47 104.218 24.91Z" fill="black"/>
<path d="M14.0821 0C10.5147 3.14501 7.22883 7.60436 4.34199 13.7536C1.17351 20.5365 0.258173 26.2163 0 30.1827C0.797988 29.3143 5.9145 23.8223 14.0821 23.8458C21.9916 23.8692 28 30.2062 28 30.2062C27.7888 25.1366 26.6387 19.9262 23.8692 13.8474C20.865 7.13495 16.8516 2.44091 14.0821 0Z" fill="black"/>
</svg>
