<svg width="12" height="15" viewBox="0 0 12 15" fill="none" xmlns="http://www.w3.org/2000/svg">
<path d="M2.05137 15V12.144H0.224375V10.779H2.05137V8.91H0.224375V7.314H2.05137V0.00599903H5.99938C7.83338 0.00599903 9.19138 0.376999 10.0734 1.119C10.9694 1.861 11.4174 2.939 11.4174 4.353C11.4174 5.781 10.9344 6.901 9.96838 7.713C9.00238 8.511 7.58138 8.91 5.70538 8.91H3.94137V10.779H7.40638V12.144H3.94137V15H2.05137ZM5.43238 7.314C6.70637 7.314 7.69337 7.104 8.39338 6.684C9.10738 6.264 9.46438 5.508 9.46438 4.416C9.46438 3.464 9.17038 2.757 8.58238 2.295C7.99438 1.833 7.07738 1.602 5.83137 1.602H3.94137V7.314H5.43238Z" fill="#636363"/>
</svg>
